<svg width="48" height="48" viewBox="0 0 48 48" fill="none" xmlns="http://www.w3.org/2000/svg">
<rect width="48" height="48" fill="#970A5F"/>
<path d="M41.3248 12.5671C41.5794 12.6248 41.8258 12.6825 42.0644 12.7403C42.303 12.798 42.5419 12.8629 42.7804 12.9351C43.2576 13.0938 43.6871 13.2886 44.0687 13.5195C44.4505 13.7936 44.7449 14.1111 44.9515 14.4718C45.1744 14.847 45.2857 15.316 45.2857 15.8788C45.2381 16.5426 45.0233 17.1342 44.6414 17.6537C44.5618 17.7691 44.4743 17.8773 44.379 17.9783C44.2834 18.0794 44.1721 18.1876 44.0448 18.303C43.7586 18.5339 43.4485 18.7215 43.1143 18.8658C42.7804 19.0245 42.3509 19.1616 41.8258 19.277C41.3646 19.3781 40.8 19.4286 40.1319 19.4286C39.3525 19.4286 38.6684 19.342 38.0799 19.1688C37.4595 18.9668 36.9504 18.7359 36.5528 18.4762C36.3302 18.3319 36.1311 18.1876 35.9562 18.0433C35.7813 17.899 35.6302 17.7475 35.5029 17.5887C35.4236 17.5166 35.3518 17.4444 35.2881 17.3723C35.2405 17.3001 35.1928 17.228 35.1452 17.1558C34.9066 16.8672 34.9621 16.6291 35.3119 16.4415L36.8152 15.5324C36.9742 15.4603 37.1096 15.482 37.2209 15.5974L37.3642 15.8138L37.6028 16.0952C37.6664 16.1674 37.7297 16.2323 37.7934 16.29C37.873 16.3478 37.9686 16.4055 38.0799 16.4632C38.1912 16.5209 38.3104 16.5786 38.4377 16.6364C38.5649 16.6797 38.7161 16.7229 38.891 16.7662C39.2252 16.8528 39.6387 16.8961 40.1319 16.8961L40.7523 16.8528C40.9909 16.8384 41.2452 16.7951 41.5157 16.7229C41.7383 16.6652 41.9531 16.5642 42.16 16.4199C42.3349 16.3045 42.4224 16.1385 42.4224 15.9221C42.4224 15.72 42.3189 15.5469 42.1123 15.4026C41.8418 15.2439 41.5157 15.114 41.1339 15.013L39.8215 14.7099C39.5829 14.6522 39.3365 14.5945 39.0819 14.5368C38.8433 14.4791 38.5888 14.4141 38.3185 14.342C37.8094 14.1977 37.3162 14.0029 36.8391 13.7576C36.4095 13.5267 36.028 13.2164 35.6938 12.8268C35.3916 12.4661 35.2405 12.0115 35.2405 11.4632L35.2643 11.1818L35.3119 10.9004C35.3916 10.6263 35.511 10.3304 35.67 10.013C35.8449 9.68109 36.1073 9.36364 36.4572 9.0606C36.8391 8.75757 37.3006 8.50505 37.8414 8.30303C38.4298 8.10102 39.1456 8 39.9886 8C40.7203 8 41.3646 8.08657 41.9214 8.25975C42.4462 8.41847 42.9156 8.63493 43.3291 8.9091C43.7266 9.19769 44.0448 9.4935 44.2834 9.79653C44.3471 9.86869 44.4029 9.94084 44.4505 10.013C44.5142 10.0851 44.5618 10.1573 44.5938 10.2294C44.6891 10.3737 44.7129 10.518 44.6653 10.6623C44.6176 10.7922 44.522 10.9004 44.379 10.987L42.8757 11.8745C42.7168 11.961 42.5814 11.9322 42.4701 11.7879L42.3271 11.5281C42.1998 11.355 42.0405 11.189 41.8496 11.0303C41.659 10.8716 41.4123 10.7417 41.11 10.6407C40.8238 10.5397 40.4501 10.4892 39.9886 10.4892C39.4478 10.4892 39.0343 10.5469 38.748 10.6623C38.5251 10.7778 38.3583 10.886 38.2467 10.987C38.1831 11.0447 38.1514 11.1097 38.1514 11.1818L38.1276 11.2467C38.1116 11.29 38.1038 11.3478 38.1038 11.4199C38.1354 11.5354 38.1912 11.6147 38.2709 11.658C38.2865 11.6724 38.3025 11.6797 38.3185 11.6797C38.3342 11.6797 38.3502 11.6869 38.3662 11.7013C38.5411 11.8023 38.732 11.8889 38.939 11.961C39.1616 12.0332 39.408 12.1053 39.6785 12.1775C40.2194 12.3362 40.768 12.4661 41.3248 12.5671Z" fill="white"/>
<path d="M34.907 8.93342L30.9099 18.996C30.8014 19.2844 30.5845 19.4286 30.2591 19.4286H28.4929C28.1675 19.4286 27.9506 19.2768 27.8422 18.9733L25.9597 14.0558C25.7583 13.5398 25.5414 13.2817 25.309 13.2817C25.0766 13.2817 24.8597 13.5398 24.6583 14.0558L22.7294 18.996C22.6209 19.2844 22.404 19.4286 22.0786 19.4286H20.3124C19.9871 19.4286 19.7701 19.2844 19.6617 18.996L15.6644 8.93342C15.5404 8.64506 15.5404 8.41738 15.6644 8.25044C15.7883 8.08349 16.0052 8 16.3151 8H17.756C18.0814 8 18.2983 8.14418 18.4067 8.43255L20.5448 13.9419C20.7462 14.4428 20.9631 14.6932 21.1955 14.6932C21.4279 14.6932 21.6448 14.4428 21.8463 13.9419L23.9843 8.43255C24.0928 8.14418 24.3097 8 24.6351 8H25.9365C26.2618 8 26.4787 8.14418 26.5872 8.43255L28.7253 13.9419C28.9267 14.4428 29.1436 14.6932 29.376 14.6932C29.6084 14.6932 29.8253 14.4428 30.0267 13.9419L32.1648 8.43255C32.2733 8.14418 32.4901 8 32.8156 8H34.2563C34.5662 8 34.7833 8.08349 34.907 8.25044C35.031 8.41738 35.031 8.64506 34.907 8.93342Z" fill="white"/>
<path d="M14.4286 8.9938V18.5428C14.4286 18.7444 14.3695 18.9029 14.2514 19.0181C14.1333 19.1333 13.9709 19.1909 13.7641 19.1909H12.2359C11.9553 19.1909 11.8151 19.0541 11.8151 18.7804C11.8151 18.5068 11.7043 18.4564 11.4828 18.6292C11.1728 18.8453 10.8332 19.0181 10.464 19.1477C9.94721 19.335 9.37137 19.4286 8.73645 19.4286C7.92433 19.4286 7.17868 19.2774 6.49944 18.9749C5.80547 18.6868 5.20008 18.2836 4.68328 17.7651C4.15172 17.2177 3.74566 16.6129 3.46512 15.9503C3.15504 15.259 3 14.5173 3 13.7251C3 12.9329 3.15504 12.1912 3.46512 11.4999C3.74566 10.8373 4.15172 10.2324 4.68328 9.68513C5.18531 9.18101 5.7907 8.77053 6.49944 8.45368C7.17868 8.15122 7.92433 8 8.73645 8C9.37137 8 9.94721 8.09362 10.464 8.28086C10.8627 8.43929 11.2171 8.62653 11.5271 8.84255C11.7191 8.98658 11.8151 8.94338 11.8151 8.71294C11.8151 8.46807 11.9406 8.34567 12.1916 8.34567H13.7641C13.9709 8.34567 14.1333 8.40326 14.2514 8.51849C14.3695 8.63371 14.4286 8.79214 14.4286 8.9938ZM8.73645 16.8793C9.16466 16.8793 9.57069 16.7929 9.9546 16.62C10.1466 16.548 10.3164 16.4544 10.464 16.3392C10.6265 16.224 10.7815 16.0943 10.9291 15.9503C11.2097 15.6767 11.4312 15.3382 11.5936 14.9349C11.7412 14.5892 11.8151 14.186 11.8151 13.7251C11.8151 13.2786 11.7412 12.8681 11.5936 12.4936C11.4312 12.0904 11.2097 11.7519 10.9291 11.4783C10.6486 11.2046 10.3237 10.9814 9.9546 10.8085C9.55593 10.6501 9.14987 10.5709 8.73645 10.5709C8.323 10.5709 7.91694 10.6501 7.51827 10.8085C7.13438 10.9814 6.80216 11.2046 6.52161 11.4783C6.21153 11.7807 5.98264 12.1192 5.835 12.4936C5.67258 12.8969 5.59136 13.3074 5.59136 13.7251C5.59136 14.1428 5.67258 14.546 5.835 14.9349C5.98264 15.3094 6.21153 15.6478 6.52161 15.9503C6.83167 16.2528 7.16389 16.476 7.51827 16.62C7.88743 16.7929 8.29346 16.8793 8.73645 16.8793Z" fill="white"/>
<path d="M44.1429 34.5558V34.8798L44.12 35.0527C44.12 35.1535 44.0666 35.2039 43.96 35.2039H36.4171C36.1582 35.2039 35.9675 35.2759 35.8456 35.4199C35.7236 35.564 35.7236 35.7512 35.8456 35.9817C36.0285 36.2841 36.2723 36.5578 36.5772 36.8026C37.0799 37.2347 37.6971 37.4507 38.4284 37.4507C39.0534 37.4507 39.6628 37.3499 40.2572 37.1483C40.6533 37.0187 40.9885 36.8098 41.263 36.5217C41.5372 36.2625 41.8495 36.2049 42.2 36.3489L43.3656 36.9106C43.5638 37.0114 43.6858 37.1483 43.7314 37.3211C43.7771 37.4795 43.7314 37.638 43.5941 37.7964C43.0761 38.4445 42.421 38.9486 41.6285 39.3087C40.6686 39.7696 39.6018 40 38.4284 40C37.6058 40 36.8439 39.8488 36.1429 39.5463C35.4572 39.2727 34.8551 38.8694 34.337 38.3365C33.8495 37.8324 33.4534 37.2275 33.1486 36.5217C32.859 35.8448 32.7143 35.1031 32.7143 34.2965C32.7143 33.49 32.859 32.7482 33.1486 32.0713C33.4534 31.3656 33.8495 30.7607 34.337 30.2566C34.84 29.7381 35.4419 29.3276 36.1429 29.0251C36.8439 28.7227 37.6058 28.5714 38.4284 28.5714C39.236 28.5714 39.998 28.7227 40.7143 29.0251C41.3846 29.3276 41.9868 29.7381 42.5199 30.2566C43.0076 30.7607 43.4037 31.3656 43.7086 32.0713C43.9981 32.7482 44.1429 33.49 44.1429 34.2965V34.5558ZM40.7827 32.2873C40.5848 32.0281 40.3713 31.8193 40.1427 31.6608C39.6553 31.3152 39.0837 31.1423 38.4284 31.1423C37.7734 31.1423 37.2094 31.3152 36.7372 31.6608C36.4781 31.8337 36.257 32.0425 36.0741 32.2873C35.9218 32.489 35.899 32.6618 36.0056 32.8059C36.1123 32.9499 36.303 33.0219 36.5772 33.0219H40.3028C40.577 33.0219 40.7677 32.9499 40.8743 32.8059C40.981 32.6618 40.9503 32.489 40.7827 32.2873Z" fill="white"/>
<path d="M28.8139 35.5126C28.8139 36.2722 28.8914 36.7759 29.0463 37.0239C29.1871 37.2564 29.4267 37.3727 29.7646 37.3727H30.145L30.5676 37.3494L30.9058 37.3029H31.0749C31.2018 37.2719 31.2651 37.3262 31.2651 37.4657L31.5608 39.2095C31.5891 39.3955 31.5608 39.5505 31.4764 39.6745C31.392 39.7985 31.2582 39.8682 31.0749 39.8838L30.5043 39.9535L29.5955 40C29.1166 40 28.6659 39.938 28.2433 39.814C27.8346 39.7055 27.4967 39.473 27.229 39.1165C26.9472 38.791 26.7359 38.326 26.5949 37.7214C26.4399 37.1169 26.3625 36.3497 26.3625 35.4196V31.746C26.3625 31.529 26.3061 31.3585 26.1934 31.2345C26.0806 31.1105 25.9257 31.0485 25.7286 31.0485H25.3482C25.151 31.0485 24.9961 30.9865 24.8834 30.8625C24.7706 30.7385 24.7143 30.568 24.7143 30.351V29.0257C24.7143 28.8087 24.7706 28.6382 24.8834 28.5142C24.9961 28.3902 25.151 28.3282 25.3482 28.3282H25.7286C25.9257 28.3282 26.0806 28.2662 26.1934 28.1422C26.3061 28.0182 26.3625 27.8477 26.3625 27.6307V25.8404C26.3625 25.6234 26.4188 25.4529 26.5316 25.3289C26.6443 25.2049 26.7992 25.1429 26.9964 25.1429H28.1797C28.3772 25.1429 28.5321 25.2049 28.6448 25.3289C28.7576 25.4529 28.8139 25.6234 28.8139 25.8404V27.6307C28.8139 27.8477 28.8703 28.0182 28.9827 28.1422C29.0955 28.2662 29.2504 28.3282 29.4478 28.3282H30.6945C30.8916 28.3282 31.0466 28.3902 31.1593 28.5142C31.272 28.6382 31.3284 28.8087 31.3284 29.0257V30.351C31.3284 30.568 31.272 30.7385 31.1593 30.8625C31.0466 30.9865 30.8916 31.0485 30.6945 31.0485H29.4478C29.2504 31.0485 29.0955 31.1105 28.9827 31.2345C28.8703 31.3585 28.8139 31.529 28.8139 31.746V35.5126Z" fill="white"/>
<path d="M20.7143 27.6017C20.2453 27.6017 19.8424 27.4247 19.5054 27.0707C19.1684 26.7167 19 26.2934 19 25.8009C19 25.3083 19.1684 24.885 19.5054 24.531C19.8424 24.177 20.2453 24 20.7143 24C20.9488 24 21.1758 24.0462 21.3956 24.1385C21.4984 24.2001 21.5934 24.2617 21.6815 24.3232C21.784 24.3848 21.8718 24.4541 21.9451 24.531C22.0771 24.6696 22.1944 24.862 22.2969 25.1082C22.3847 25.3237 22.4286 25.5546 22.4286 25.8009C22.4286 26.2934 22.2602 26.7167 21.9232 27.0707C21.5862 27.4247 21.1833 27.6017 20.7143 27.6017ZM20.0769 28.4098H21.3297C21.5348 28.4098 21.6959 28.4714 21.8132 28.5945C21.9304 28.7176 21.989 28.8869 21.989 29.1025V39.3074C21.989 39.5228 21.9304 39.6921 21.8132 39.8153C21.6959 39.9384 21.5348 40 21.3297 40H20.0769C19.8719 40 19.7107 39.9384 19.5935 39.8153C19.4762 39.6921 19.4176 39.5228 19.4176 39.3074V29.1025C19.4176 28.8869 19.4762 28.7176 19.5935 28.5945C19.7107 28.4714 19.8719 28.4098 20.0769 28.4098Z" fill="white"/>
<path d="M15.0197 24H16.1232C16.307 24 16.4517 24.0624 16.5566 24.1871C16.6617 24.3119 16.7143 24.4834 16.7143 24.7018V39.2982C16.7143 39.5166 16.6617 39.6881 16.5566 39.8129C16.4517 39.9376 16.307 40 16.1232 40H15.0197C14.8358 40 14.6914 39.9376 14.5863 39.8129C14.4811 39.6881 14.4286 39.5166 14.4286 39.2982V24.7018C14.4286 24.4834 14.4811 24.3119 14.5863 24.1871C14.6914 24.0624 14.8358 24 15.0197 24Z" fill="white"/>
<path d="M4.84868 32H11.437C11.6568 32 11.8294 32.0586 11.9549 32.1758C12.0801 32.2931 12.1429 32.4542 12.1429 32.6593V33.6264C12.1429 33.8315 12.0801 33.9927 11.9549 34.1099C11.8294 34.2271 11.6568 34.2857 11.437 34.2857H4.84868C4.62917 34.2857 4.45666 34.2271 4.33114 34.1099C4.20562 33.9927 4.14286 33.8315 4.14286 33.6264V32.6593C4.14286 32.4542 4.20562 32.2931 4.33114 32.1758C4.45666 32.0586 4.62917 32 4.84868 32Z" fill="white"/>
</svg>
